<svg width="39" height="36" viewBox="0 0 39 36" fill="none" xmlns="http://www.w3.org/2000/svg">
<path d="M9 9H18V6H9Z" fill="#000"/>
<path d="M21 9H30V6H21Z" fill="#000"/>
<path d="M9 9H6V18H9V9Z" fill="#000"/>
<path d="M12 18H9V21H12V18Z" fill="#000"/>
<path d="M15 21H12V24H15V21Z" fill="#000"/>
<path d="M18 24H15V27H18V24Z" fill="#000"/>
<path d="M30 9H33V18H30V9Z" fill="#000"/>
<path d="M27 18H30V21H27V18Z" fill="#000"/>
<path d="M24 21H27V24H24V21Z" fill="#000"/>
<path d="M21 24H24V27H21V24Z" fill="#000"/>
<path d="M21 9H18V12H21V9Z" fill="#000"/>
<path d="M21 27H18V30H21V27Z" fill="#000"/>
</svg>
